<svg width="35" height="39" viewBox="0 0 35 39" fill="none" xmlns="http://www.w3.org/2000/svg">
<path d="M1.05905e-05 14.6253C-8.01453e-05 12.2103 0.715461 9.83282 2.08274 7.70522C3.45002 5.57763 5.42649 3.76611 7.83565 2.43242C10.2448 1.09873 13.0117 0.284378 15.8892 0.0620882C18.7667 -0.160202 21.6654 0.216485 24.3262 1.15851C26.9871 2.10054 29.3274 3.57859 31.1382 5.46068C32.949 7.34277 34.1739 9.57032 34.7036 11.9444C35.2332 14.3185 35.0511 16.7653 34.1735 19.0663C33.2959 21.3672 31.7501 23.4507 29.6742 25.1308C29.0821 25.6085 28.6271 26.1058 28.3529 26.6396L26.1304 30.9515C26.0176 31.17 25.8308 31.3562 25.5929 31.487C25.355 31.6178 25.0764 31.6875 24.7917 31.6876H10.2083C9.92307 31.688 9.64391 31.6185 9.40543 31.4876C9.16696 31.3568 8.97964 31.1704 8.86667 30.9515L6.64709 26.6371C6.32929 26.0674 5.88033 25.5555 5.32584 25.1308C3.63891 23.7686 2.29785 22.1363 1.38278 20.3313C0.467717 18.5263 -0.00257339 16.5856 1.05905e-05 14.6253ZM8.75001 35.3438C8.75001 35.0206 8.90365 34.7106 9.17714 34.482C9.45063 34.2535 9.82157 34.1251 10.2083 34.1251H24.7917C25.1784 34.1251 25.5494 34.2535 25.8229 34.482C26.0964 34.7106 26.25 35.0206 26.25 35.3438C26.25 35.667 26.0964 35.977 25.8229 36.2056C25.5494 36.4341 25.1784 36.5625 24.7917 36.5625L24.1383 37.6521C23.8963 38.0569 23.5241 38.3974 23.0636 38.6355C22.6031 38.8735 22.0723 38.9998 21.5308 39H13.4692C12.9277 38.9998 12.3969 38.8735 11.9364 38.6355C11.4759 38.3974 11.1037 38.0569 10.8617 37.6521L10.2083 36.5625C9.82157 36.5625 9.45063 36.4341 9.17714 36.2056C8.90365 35.977 8.75001 35.667 8.75001 35.3438Z" fill="#31DA8C"/>
</svg>
