<svg width="50" height="43" viewBox="0 0 50 43" fill="none" xmlns="http://www.w3.org/2000/svg">
<path d="M12.5 0.125C19.4063 0.125 25 5.60938 25 12.375C25 5.60938 30.5937 0.125 37.5 0.125C44.4063 0.125 50 5.60938 50 12.375C50 22.5719 39.8938 26.1688 26.225 42.4C26.0745 42.5783 25.8869 42.7215 25.6754 42.8198C25.4638 42.9181 25.2333 42.969 25 42.969C24.7667 42.969 24.5362 42.9181 24.3246 42.8198C24.1131 42.7215 23.9255 42.5783 23.775 42.4C10.1062 26.1688 0 22.5719 0 12.375C0 5.60938 5.59375 0.125 12.5 0.125Z" fill="#CE7A9A"/>
</svg>
