<svg width="32" height="50" viewBox="0 0 32 50" fill="none" xmlns="http://www.w3.org/2000/svg">
<path d="M8.25 1.12188C8.34523 0.797902 8.54284 0.513496 8.81326 0.31125C9.08367 0.109004 9.41232 -0.000197458 9.75 2.68036e-07H22.25C22.4974 0.000188105 22.7413 0.0591437 22.9615 0.172014C23.1817 0.284884 23.372 0.44844 23.5166 0.649219C23.6613 0.849998 23.7561 1.08226 23.7934 1.32688C23.8308 1.5715 23.8094 1.82148 23.7313 2.05625L18.1688 18.75H30.0625C30.3551 18.7498 30.6419 18.8318 30.8902 18.9866C31.1385 19.1414 31.3384 19.3628 31.467 19.6256C31.5956 19.8884 31.6479 20.182 31.6178 20.4731C31.5877 20.7642 31.4765 21.0409 31.2969 21.2719L9.42188 49.3969C9.19778 49.6864 8.87914 49.888 8.52157 49.9666C8.16399 50.0451 7.79018 49.9956 7.46537 49.8267C7.14056 49.6578 6.88537 49.3802 6.74435 49.0423C6.60333 48.7045 6.58542 48.3278 6.69375 47.9781L12.3219 29.6875H1.9375C1.69458 29.6876 1.45497 29.6311 1.2377 29.5225C1.02043 29.4138 0.831491 29.256 0.685883 29.0616C0.540275 28.8671 0.442011 28.6414 0.398894 28.4023C0.355778 28.1633 0.368996 27.9174 0.4375 27.6844L8.25 1.12188Z" fill="#420FE7"/>
</svg>
